PathFileType	4	(x/y/z)	S05_M20_T05
DataRate	CameraRate	NumFrames	NumMarkers	Units	OrigDataRate	OrigDataStartFrame	OrigNumFrames
240	240	9	50	mm	240	462	527
Frame#	Time	Sternum			R.Acromium			L.Acromium			Top.Head			R.ASIS			L.ASIS			R.PSIS			L.PSIS			R.Great.Tro			L.Great.Tro			R.Iliac.Crest			L.Iliac.Crest			V.Sacral			R.Thigh.Upper.Post			R.Thigh.Lower.Ant			R.Thigh.Lower.Post			R.Thigh.Upper.Ant			R.Knee.Lat			R.Knee.Med			R.Shank.Upper.Post			R.Shank.Lower.Ant			R.Shank.Lower.Post			R.Shank.Upper.Ant			R.Ankle.Lat			R.Ankle.Med			R.Heel.Upper			R.Heel.Med			R.Heel.Lat			R.Toe.Lat			R.Toe.Med			R.Toe.Tip			L.Thigh.Upper.Post			L.Thigh.Lower.Ant			L.Thigh.Lower.Post			L.Thigh.Upper.Ant			L.Knee.Lat			L.Shank.Upper.Post			L.Shank.Lower.Ant			L.Shank.Lower.Post			L.Shank.Upper.Ant			L.Ankle.Lat			L.Ankle.Med			L.Heel.Upper			L.Heel.Med			L.Heel.Lat			L.Toe.Lat			L.Toe.Med			L.Toe.Tip			Cervical.Spine			Back			
		X1	Y1	Z1	X2	Y2	Z2	X3	Y3	Z3	X4	Y4	Z4	X5	Y5	Z5	X6	Y6	Z6	X7	Y7	Z7	X8	Y8	Z8	X9	Y9	Z9	X10	Y10	Z10	X11	Y11	Z11	X12	Y12	Z12	X13	Y13	Z13	X14	Y14	Z14	X15	Y15	Z15	X16	Y16	Z16	X17	Y17	Z17	X18	Y18	Z18	X19	Y19	Z19	X20	Y20	Z20	X21	Y21	Z21	X22	Y22	Z22	X23	Y23	Z23	X24	Y24	Z24	X25	Y25	Z25	X26	Y26	Z26	X27	Y27	Z27	X28	Y28	Z28	X29	Y29	Z29	X30	Y30	Z30	X31	Y31	Z31	X32	Y32	Z32	X33	Y33	Z33	X34	Y34	Z34	X35	Y35	Z35	X36	Y36	Z36	X37	Y37	Z37	X38	Y38	Z38	X39	Y39	Z39	X40	Y40	Z40	X41	Y41	Z41	X42	Y42	Z42	X43	Y43	Z43	X44	Y44	Z44	X45	Y45	Z45	X46	Y46	Z46	X47	Y47	Z47	X48	Y48	Z48	X49	Y49	Z49	X50	Y50	Z50	

462	1.9208	1623.8	1269.6	322.73	1541.5	1537.2	479.76	1532.6	1555.4	154.74	1535.8	1827.3	319.73	1550.1	1012.8	453.01	1547.7	1015.8	204.66	1347.3	1031.1	375.54	1347.1	1037.8	283.25	1479	937.56	525.72	1450.7	941.83	131.67	1466.4	1099.4	494.4	1458.3	1095.9	159.91	1334.1	998.93	340.64	1641.7	762.81	531.25	1718.5	726.68	473.38	1677.2	680.73	512.24	1678.5	805.46	491.43	1711.7	593.15	492.73	1722.8	581.8	361.59	1678.9	344.04	471.72	1751	289.97	476.16	1693.3	269.98	454.43	1737.2	365.12	491.58	1751.3	182.95	455.89	1774.1	217.51	372.71	1709	116.04	390.18	1731.5	90.239	361.3	1722.5	88.922	425.97	1878.4	122.43	493.31	1917.9	150.2	381.45	1968	183.4	433.2	1425.8	700.86	148.87	1496.9	620.4	176.22	1425.5	607.54	170.96	1504.4	708.7	153.55	1426.9	516.34	181.85	1335.3	324.43	187.35	1393.5	257.01	196.29	1324.1	254.59	209.65	1401.6	326.38	181.48	1338.6	116.7	223.33	1369.6	130.88	310.62	1275.8	68.464	277.82	1286.7	43.642	310.27	1278.5	41.182	249.21	1460.5	36.771	195.4	1483.3	51.429	314.25	1547.2	61.179	260.99	1477.6	1574.8	324.02	1352.9	1299.9	325.13
463	1.925	1628.8	1268.9	322.71	1546.7	1536.3	480.23	1537.7	1555	155.33	1540.9	1826.5	320.81	1555.6	1012	452.75	1552.9	1015.4	204.48	1352.6	1030.3	375.81	1352.2	1037.3	283.56	1484.5	936.51	525.53	1455.2	941.53	131.78	1471.9	1098.5	494.43	1463.1	1095.4	159.99	1339.3	998.25	340.91	1646.4	760.9	530.93	1722.9	724.45	472.89	1681.5	678.67	511.83	1683.3	803.4	491.03	1716	591.25	491.99	1727.2	579.87	360.68	1688.6	341.57	471.62	1762	289.28	476.46	1704.8	267.8	454.55	1746.3	364.12	491.59	1765.3	182.03	456.51	1787.4	216.99	373.34	1724.9	113.82	391.03	1748.1	88.553	362.19	1739	87.194	426.86	1893.9	124.91	494.27	1932.9	153.53	382.5	1982	188.14	434.23	1428.6	700.82	148.75	1499.4	619.98	176.02	1427.8	607.53	170.88	1507.4	708.22	153.29	1428.5	516.23	181.76	1336	324.72	187.36	1394.1	257.06	196.13	1324.6	254.92	209.74	1402.4	326.39	181.32	1338.7	116.76	223.33	1369.8	130.9	310.59	1275.8	68.498	277.86	1286.8	43.685	310.3	1278.5	41.256	249.23	1460.5	36.672	195.35	1483.3	51.41	314.21	1547.3	61.046	260.93	1482.7	1574	324.57	1357.9	1299.2	325.52
464	1.9292	1633.8	1268.1	322.7	1552	1535.3	480.72	1542.7	1554.5	155.93	1546	1825.7	321.9	1561.1	1011.1	452.51	1558.1	1014.9	204.31	1358	1029.5	376.08	1357.3	1036.6	283.87	1490	935.4	525.34	1459.7	941.19	131.9	1477.4	1097.5	494.47	1467.8	1094.9	160.09	1344.6	997.53	341.17	1651	758.89	530.62	1727.3	722.11	472.41	1685.8	676.52	511.44	1688	801.23	490.63	1720.2	589.26	491.25	1731.5	577.86	359.74	1698.2	339.18	471.54	1772.8	288.67	476.78	1716.2	265.73	454.7	1755.3	363.16	491.61	1779.1	181.25	457.17	1800.4	216.59	374	1740.6	111.81	391.92	1764.4	87.082	363.12	1755.2	85.68	427.79	1909.1	127.51	495.23	1947.5	156.94	383.53	1995.6	192.92	435.24	1431.6	700.77	148.65	1501.9	619.53	175.82	1430.3	607.5	170.8	1510.4	707.73	153.02	1430.1	516.11	181.67	1336.8	325.01	187.38	1394.7	257.12	195.97	1325.2	255.25	209.83	1403.2	326.41	181.16	1338.8	116.83	223.34	1370	130.91	310.57	1275.9	68.535	277.9	1286.8	43.73	310.32	1278.5	41.335	249.24	1460.6	36.572	195.3	1483.4	51.392	314.17	1547.3	60.907	260.86	1487.9	1573.2	325.14	1363	1298.5	325.92
465	1.9333	1638.8	1267.3	322.71	1557.2	1534.2	481.22	1547.8	1554	156.56	1551.1	1824.9	322.99	1566.6	1010.2	452.29	1563.4	1014.4	204.15	1363.3	1028.7	376.36	1362.4	1036	284.19	1495.5	934.23	525.14	1464.2	940.83	132.02	1483	1096.5	494.52	1472.7	1094.4	160.19	1349.9	996.76	341.44	1655.7	756.79	530.3	1731.6	719.66	471.94	1689.9	674.27	511.04	1692.8	798.96	490.24	1724.4	587.2	490.51	1735.8	575.78	358.78	1707.7	336.86	471.48	1783.4	288.12	477.13	1727.5	263.77	454.9	1764.1	362.24	491.64	1792.6	180.6	457.85	1813.3	216.28	374.68	1756	110	392.86	1780.4	85.816	364.09	1771.2	84.372	428.76	1924	130.21	496.17	1961.7	160.41	384.54	2008.9	197.71	436.21	1434.5	700.7	148.54	1504.5	619.07	175.62	1432.8	607.45	170.71	1513.4	707.21	152.77	1431.8	515.98	181.58	1337.6	325.3	187.39	1395.3	257.18	195.8	1325.8	255.59	209.92	1404	326.43	181	1338.9	116.9	223.36	1370.2	130.93	310.54	1276	68.577	277.94	1286.8	43.777	310.35	1278.6	41.419	249.26	1460.6	36.471	195.25	1483.4	51.373	314.13	1547.4	60.76	260.79	1493	1572.4	325.71	1368	1297.7	326.34
466	1.9375	1643.8	1266.4	322.73	1562.5	1533.1	481.74	1552.9	1553.4	157.2	1556.3	1824	324.09	1572.2	1009.2	452.07	1568.6	1013.8	204.01	1368.7	1027.8	376.64	1367.5	1035.3	284.51	1501.1	933	524.94	1468.8	940.44	132.15	1488.5	1095.5	494.58	1477.5	1093.8	160.32	1355.2	995.95	341.7	1660.2	754.6	529.98	1735.9	717.13	471.49	1694.1	671.94	510.65	1697.5	796.61	489.86	1728.5	585.06	489.77	1740.1	573.64	357.81	1717	334.63	471.45	1793.8	287.63	477.49	1738.6	261.93	455.13	1772.8	361.35	491.68	1805.9	180.08	458.56	1825.8	216.08	375.37	1771.2	108.38	393.84	1796.2	84.742	365.09	1786.9	83.258	429.77	1938.5	132.98	497.1	1975.6	163.92	385.53	2021.8	202.49	437.15	1437.5	700.6	148.44	1507.2	618.59	175.43	1435.3	607.39	170.62	1516.5	706.67	152.51	1433.6	515.83	181.49	1338.4	325.59	187.42	1396	257.22	195.64	1326.4	255.94	210.01	1404.9	326.44	180.84	1339	116.98	223.37	1370.4	130.96	310.52	1276	68.624	277.99	1286.9	43.827	310.38	1278.6	41.509	249.28	1460.6	36.369	195.2	1483.5	51.35	314.09	1547.5	60.603	260.72	1498.2	1571.6	326.29	1373.1	1296.9	326.76
467	1.9417	1648.8	1265.5	322.76	1567.8	1532	482.27	1557.9	1552.8	157.86	1561.4	1823.1	325.2	1577.7	1008.2	451.87	1573.9	1013.2	203.88	1374.1	1026.9	376.93	1372.7	1034.6	284.84	1506.6	931.71	524.74	1473.5	940.02	132.28	1494.1	1094.4	494.65	1482.4	1093.2	160.46	1360.5	995.09	341.97	1664.8	752.34	529.66	1740.2	714.53	471.03	1698.2	669.53	510.26	1702.1	794.18	489.48	1732.6	582.87	489.03	1744.4	571.45	356.83	1726.2	332.47	471.45	1804	287.2	477.87	1749.4	260.19	455.4	1781.3	360.49	491.73	1818.9	179.67	459.29	1838.1	215.95	376.08	1786	106.94	394.84	1811.6	83.845	366.11	1802.3	82.325	430.8	1952.7	135.81	498.01	1989.1	167.44	386.49	2034.3	207.23	438.06	1440.6	700.48	148.35	1509.9	618.09	175.23	1438	607.3	170.52	1519.7	706.12	152.26	1435.4	515.67	181.4	1339.3	325.88	187.44	1396.7	257.26	195.48	1327.1	256.28	210.09	1405.9	326.44	180.68	1339.1	117.07	223.39	1370.7	130.98	310.5	1276.1	68.678	278.05	1286.9	43.878	310.41	1278.6	41.605	249.31	1460.6	36.268	195.15	1483.5	51.321	314.06	1547.5	60.433	260.65	1503.4	1570.7	326.88	1378.2	1296	327.19
468	1.9458	1653.8	1264.6	322.82	1573.2	1530.8	482.83	1563	1552.2	158.54	1566.5	1822.1	326.31	1583.3	1007.1	451.68	1579.1	1012.6	203.75	1379.5	1025.9	377.21	1377.9	1033.8	285.17	1512.2	930.36	524.55	1478.2	939.57	132.42	1499.6	1093.2	494.73	1487.3	1092.5	160.63	1365.9	994.18	342.24	1669.3	750.02	529.33	1744.4	711.86	470.58	1702.3	667.06	509.86	1706.8	791.69	489.11	1736.7	580.64	488.3	1748.7	569.22	355.83	1735.3	330.39	471.46	1814	286.81	478.26	1760.1	258.56	455.71	1789.6	359.66	491.78	1831.7	179.36	460.03	1850.2	215.9	376.8	1800.5	105.67	395.87	1826.6	83.109	367.15	1817.3	81.557	431.85	1966.5	138.67	498.9	2002.2	170.95	387.42	2046.5	211.91	438.93	1443.6	700.34	148.25	1512.6	617.57	175.04	1440.6	607.18	170.43	1522.9	705.54	152.01	1437.3	515.49	181.3	1340.3	326.16	187.46	1397.4	257.29	195.33	1327.8	256.62	210.18	1406.9	326.43	180.52	1339.3	117.16	223.42	1370.9	131.01	310.5	1276.2	68.741	278.11	1287	43.933	310.45	1278.7	41.709	249.34	1460.6	36.169	195.1	1483.6	51.283	314.02	1547.6	60.251	260.58	1508.6	1569.7	327.48	1383.3	1295	327.63
469	1.95	1658.9	1263.6	322.89	1578.5	1529.6	483.4	1568.1	1551.6	159.23	1571.7	1821.1	327.44	1588.9	1006.1	451.51	1584.4	1011.9	203.63	1385	1024.9	377.5	1383.1	1032.9	285.5	1517.8	928.97	524.35	1482.9	939.09	132.55	1505.2	1092	494.82	1492.3	1091.9	160.81	1371.3	993.24	342.5	1673.8	747.65	529	1748.7	709.14	470.14	1706.4	664.54	509.45	1711.5	789.14	488.74	1740.8	578.37	487.58	1753	566.96	354.83	1744.1	328.38	471.5	1823.8	286.46	478.66	1770.5	257.02	456.05	1797.8	358.85	491.84	1844.1	179.13	460.79	1861.9	215.9	377.51	1814.7	104.55	396.9	1841.2	82.515	368.2	1832	80.936	432.91	1979.9	141.55	499.77	2014.9	174.42	388.31	2058.2	216.5	439.76	1446.8	700.18	148.17	1515.4	617.02	174.84	1443.4	607.04	170.33	1526.2	704.93	151.76	1439.3	515.28	181.21	1341.3	326.43	187.49	1398.2	257.3	195.18	1328.6	256.97	210.26	1407.9	326.4	180.38	1339.4	117.25	223.46	1371.2	131.05	310.5	1276.3	68.813	278.19	1287	43.99	310.49	1278.7	41.821	249.38	1460.7	36.072	195.06	1483.7	51.233	313.99	1547.7	60.053	260.51	1513.8	1568.8	328.08	1388.4	1294.1	328.09
470	1.9542	1663.9	1262.6	322.98	1583.9	1528.4	483.99	1573.3	1550.9	159.95	1576.9	1820.1	328.57	1594.5	1004.9	451.35	1589.7	1011.2	203.51	1390.5	1023.8	377.79	1388.4	1032.1	285.84	1523.4	927.53	524.16	1487.7	938.58	132.69	1510.8	1090.8	494.93	1497.3	1091.2	161.01	1376.7	992.24	342.76	1678.3	745.23	528.65	1752.9	706.39	469.69	1710.5	661.98	509.03	1716.1	786.56	488.37	1744.9	576.08	486.87	1757.3	564.67	353.83	1752.9	326.44	471.57	1833.4	286.15	479.07	1780.8	255.56	456.42	1805.9	358.05	491.91	1856.2	178.98	461.55	1873.4	215.95	378.22	1828.5	103.57	397.94	1855.5	82.042	369.25	1846.2	80.443	433.98	1992.9	144.4	500.62	2027.2	177.82	389.17	2069.6	220.97	440.55	1450	699.99	148.09	1518.3	616.45	174.64	1446.2	606.87	170.23	1529.5	704.29	151.52	1441.3	515.06	181.12	1342.4	326.7	187.52	1399	257.29	195.05	1329.4	257.3	210.35	1409	326.35	180.25	1339.6	117.35	223.5	1371.5	131.08	310.52	1276.4	68.896	278.27	1287.1	44.051	310.53	1278.8	41.943	249.42	1460.7	35.98	195.01	1483.7	51.169	313.96	1547.8	59.839	260.46	1519.1	1567.8	328.7	1393.6	1293.1	328.55
